HIERARCHY
ROOT Hips
{
	OFFSET 0.00000 0.00000 0.00000
	CHANNELS 6 Xposition Yposition Zposition Zrotation Yrotation Xrotation 
	JOINT RightUpLegDummy
	{
		OFFSET 0 0 0
		CHANNELS 3 Zrotation Yrotation Xrotation
		JOINT RightUpLeg
		{
			OFFSET -3.52197 -3.41223 0.04002
			CHANNELS 3 Zrotation Yrotation Xrotation
			JOINT RightLeg
			{
				OFFSET 0.00006 -17.42390 1.60435
				CHANNELS 3 Zrotation Yrotation Xrotation
				JOINT RightFoot
				{
					OFFSET 0.06153 -16.50078 -1.63901
					CHANNELS 3 Zrotation Yrotation Xrotation
					JOINT RightToes
					{
						OFFSET 0.00298 -1.73825 3.34613
						CHANNELS 3 Zrotation Yrotation Xrotation
						End Site
						{
							OFFSET 0.00480 -0.05416 3.85043
						}
					}
				}
			}
		}
	}
	JOINT SpineDummy
	{
		OFFSET 0 0 0
		CHANNELS 3 Zrotation Yrotation Xrotation
		JOINT Spine
		{
			OFFSET 0.00000 4.68130 0.00000
			CHANNELS 3 Zrotation Yrotation Xrotation
			JOINT Spine1
			{
				OFFSET -0.00000 10.10138 0.05002
				CHANNELS 3 Zrotation Yrotation Xrotation
				JOINT HEadDummy
				{
					OFFSET 0 0 0
					CHANNELS 3 Zrotation Yrotation Xrotation
					JOINT Head
					{
						OFFSET -0.00000 3.43865 0.00438
						CHANNELS 3 Zrotation Yrotation Xrotation
						End Site
						{
							OFFSET -0.11417 5.02924 0.98962
						}
					}
				}
				JOINT LeftShoulder1Dummy
				{
					OFFSET 0 0 0
					CHANNELS 3 Zrotation Yrotation Xrotation
					JOINT LeftShoulder1
					{
						OFFSET 3.53937 -0.14262 -0.08662
						CHANNELS 3 Zrotation Yrotation Xrotation
						JOINT LeftArm
						{
							OFFSET 4.04833 -0.00133 0.12681
							CHANNELS 3 Zrotation Yrotation Xrotation
							JOINT LeftForeArm
							{
								OFFSET 10.33880 -0.01036 -0.55515
								CHANNELS 3 Zrotation Yrotation Xrotation
								JOINT LeftHand
								{
									OFFSET 8.69677 0.07543 0.40060
									CHANNELS 3 Zrotation Yrotation Xrotation
									End Site
									{
										OFFSET 5.28377 -0.21905 0.59205
									}
								}
							}
						}
					}
				}
				JOINT RightShoulderDummy
				{
					OFFSET 0 0 0
					CHANNELS 3 Zrotation Yrotation Xrotation
					JOINT RightShoulder
					{
						OFFSET -3.53937 -0.14262 -0.08660
						CHANNELS 3 Zrotation Yrotation Xrotation
						JOINT RightArm
						{
							OFFSET -4.04833 -0.00133 0.12683
							CHANNELS 3 Zrotation Yrotation Xrotation
							JOINT RightForeArm
							{
								OFFSET -10.37987 -0.01039 -0.55511
								CHANNELS 3 Zrotation Yrotation Xrotation
								JOINT RightHand
								{
									OFFSET -8.67398 0.07538 0.40058
									CHANNELS 3 Zrotation Yrotation Xrotation
									End Site
									{
										OFFSET -5.24810 -0.21916 0.59204
									}
								}
							}
						}
					}
				}
			}
		}
	}
	JOINT LeftUpLegDummy
	{
		OFFSET 0 0 0
		CHANNELS 3 Zrotation Yrotation Xrotation
		JOINT LeftUpLeg
		{
			OFFSET 3.52197 -3.41223 0.04002
			CHANNELS 3 Zrotation Yrotation Xrotation
			JOINT LeftLeg
			{
				OFFSET -0.00012 -17.42399 1.60337
				CHANNELS 3 Zrotation Yrotation Xrotation
				JOINT LeftFoot
				{
					OFFSET -0.09972 -16.50070 -1.63802
					CHANNELS 3 Zrotation Yrotation Xrotation
					JOINT LeftToes
					{
						OFFSET -0.01575 -1.73823 3.34611
						CHANNELS 3 Zrotation Yrotation Xrotation
						End Site
						{
							OFFSET 0.03150 -0.01868 3.85031
						}
					}
				}
			}
		}
	}
}
MOTION
Frames: 17
Frame Time: 0.033333
13.8177 38.3405 6.3062 179.9880 32.3242 173.4580 0.0000 0.0000 0.0000 -2.2390 -1.3773 -17.5939 -0.3668 -3.6132 -2.6564 7.2585 -0.2063 -8.4531 0.0000 -0.0000 -0.0000 0.0000 0.0000 0.0000 -0.2166 -0.5207 8.5760 5.2851 -1.5583 0.0422 -0.0000 0.0000 -0.0000 -3.4236 12.1394 -0.2653 -0.0000 0.0000 -0.0000 -33.2903 -2.4850 2.3546 -42.3945 -23.3700 -12.9437 -11.8325 -0.8742 34.8793 15.7450 -5.3573 -1.4199 -0.0000 0.0000 -0.0000 35.1181 5.2526 3.6027 36.1014 -2.4190 -21.2409 9.4522 -4.5492 24.1289 -11.2240 0.9571 -0.6050 0.0000 0.0000 0.0000 2.7783 5.2485 20.8283 -2.5867 -6.7590 15.6386 2.8942 0.2220 -16.2853 0.0000 0.0000 -0.0000
15.3081 38.1524 4.9923 -179.5320 31.3376 173.1220 0.0000 0.0000 0.0000 -1.3043 -1.1222 -17.2007 -1.0073 -6.5215 1.7531 5.0725 -0.3827 -2.8552 0.0000 -0.0000 -0.0000 0.0000 0.0000 0.0000 0.3116 -0.7161 8.2590 5.1929 -1.7159 0.0413 -0.0000 0.0000 -0.0000 -3.5788 11.1314 0.9755 -0.0000 0.0000 -0.0000 -34.0970 -2.5573 2.4323 -41.4245 -21.8901 -14.2128 -11.6956 0.4753 34.8519 15.8631 -5.0704 -1.3937 -0.0000 0.0000 -0.0000 35.2859 5.2754 3.6270 36.8299 -3.7072 -22.1587 9.1202 -5.5311 24.5516 -11.1350 0.7525 -0.5820 0.0000 0.0000 0.0000 5.0348 5.2785 22.3625 -3.2534 -7.7447 19.3999 -0.7618 0.0727 -14.2371 0.0000 0.0000 -0.0000
16.7122 37.9807 3.7150 -177.9090 30.9094 173.3440 0.0000 0.0000 0.0000 0.3489 -0.8886 -16.6770 -1.5700 -9.9025 6.3625 3.9607 -0.5349 4.2725 0.0000 -0.0000 -0.0000 0.0000 0.0000 0.0000 2.7517 -0.8064 8.1724 4.1427 -1.5567 -0.2071 -0.0000 0.0000 -0.0000 -3.9085 10.1977 2.2027 -0.0000 0.0000 -0.0000 -34.8820 -2.6100 2.5020 -40.6926 -19.9666 -15.9479 -11.3482 2.6024 35.2788 16.3110 -4.7128 -1.3868 -0.0000 0.0000 -0.0000 35.4627 5.2978 3.6522 37.5624 -4.4808 -23.1409 8.7137 -5.6349 24.9620 -10.9073 0.4886 -0.5472 0.0000 0.0000 0.0000 8.2455 5.4782 21.7283 -3.8448 -6.7198 26.5604 -4.4948 0.1467 -9.2617 0.0000 0.0000 -0.0000
17.9779 37.9022 2.5433 -175.8060 31.3332 174.0060 0.0000 0.0000 0.0000 2.4561 -0.5267 -16.0802 -1.6820 -10.9848 10.3750 3.8637 -0.6146 7.5560 0.0000 -0.0000 -0.0000 0.0000 0.0000 0.0000 6.0086 -0.6338 8.6020 2.6978 -1.0525 -0.8603 -0.0000 0.0000 -0.0000 -4.1115 9.4965 3.1244 -0.0000 0.0000 -0.0000 -34.8787 -2.5688 2.4851 -41.0076 -17.9981 -18.0503 -10.6520 4.9583 35.8620 16.8788 -4.3317 -1.3843 -0.0000 0.0000 -0.0000 35.4641 5.3031 3.6545 38.0944 -4.1575 -23.8977 8.2878 -5.6104 26.0293 -10.1736 0.4551 -0.5071 0.0000 0.0000 0.0000 11.1860 6.0917 18.6684 -2.7047 -3.5261 36.1565 -5.3783 0.5277 0.4574 0.0000 0.0000 -0.0000
19.1393 37.8597 1.5227 -174.4070 31.7161 174.3960 0.0000 0.0000 0.0000 4.2605 -0.3309 -15.5737 -1.6413 -10.0966 14.6052 3.0498 -0.4457 5.9592 0.0000 -0.0000 -0.0000 0.0000 0.0000 0.0000 7.6685 -0.4198 9.7223 2.2713 -0.6708 -1.8461 -0.0000 0.0000 -0.0000 -3.9438 8.9704 3.6059 -0.0000 0.0000 -0.0000 -34.3035 -2.5139 2.4274 -41.9793 -16.2351 -20.1758 -9.7303 5.4789 36.7103 16.5713 -3.9675 -1.3090 -0.0000 0.0000 -0.0000 35.2490 5.2836 3.6271 38.2105 -2.6572 -23.9233 8.1364 -5.5978 27.1008 -9.2788 0.4932 -0.4648 0.0000 0.0000 0.0000 12.2611 5.7891 13.6002 0.4712 0.0149 46.5472 -3.0599 0.5262 11.0301 0.0000 0.0000 -0.0000
20.2694 37.9078 0.5986 -174.2410 31.1683 174.0000 0.0000 0.0000 0.0000 5.1394 -0.4820 -14.3121 -1.8749 -9.6030 17.8687 1.6641 -0.1942 2.6839 0.0000 -0.0000 -0.0000 0.0000 0.0000 0.0000 7.0399 -0.3543 11.0052 3.0109 -0.6491 -2.5878 -0.0000 0.0000 -0.0000 -3.3908 8.3641 3.6560 -0.0000 0.0000 -0.0000 -33.9070 -2.5673 2.4246 -42.4930 -15.0945 -22.0032 -8.7878 5.3925 38.4787 15.0808 -3.6952 -1.1532 -0.0000 0.0000 -0.0000 35.0259 5.2521 3.5942 38.0671 -0.6033 -22.9105 8.5361 -5.6430 26.8221 -9.2470 0.2854 -0.4480 0.0000 0.0000 0.0000 11.2796 4.0407 7.7137 3.8153 1.8155 55.6365 0.4947 -0.1996 15.7921 0.0000 0.0000 -0.0000
21.4280 38.1002 -0.3803 -174.7700 30.2861 173.1970 0.0000 0.0000 0.0000 5.4142 -0.6602 -12.0589 -2.4265 -10.0694 19.5751 0.8260 -0.0799 -0.2058 0.0000 -0.0000 -0.0000 0.0000 0.0000 0.0000 5.8932 -0.1706 11.6786 3.4204 -0.5117 -2.6083 -0.0000 0.0000 -0.0000 -2.5475 7.4591 3.5375 -0.0000 0.0000 -0.0000 -33.8873 -2.6913 2.4728 -42.1440 -14.6639 -23.3955 -7.8957 5.3253 41.7283 13.6156 -3.5733 -1.0229 -0.0000 0.0000 -0.0000 34.9531 5.2270 3.5775 38.0372 1.2011 -21.2149 9.2669 -5.2974 25.4731 -10.2870 0.2009 -0.4929 0.0000 0.0000 0.0000 9.2930 1.9528 2.0661 6.0178 2.2162 62.0175 3.7776 -0.8936 13.1573 0.0000 0.0000 -0.0000
22.5676 38.3054 -1.4369 -175.3470 30.3725 172.5650 0.0000 0.0000 0.0000 5.7293 -0.9043 -9.6323 -2.6574 -9.7668 20.6411 0.5049 -0.0478 -3.0335 0.0000 -0.0000 -0.0000 0.0000 0.0000 0.0000 5.8177 0.4524 11.7888 2.4540 0.2797 -2.2679 -0.0000 0.0000 -0.0000 -1.5860 6.3758 3.6099 -0.0000 0.0000 -0.0000 -33.9055 -2.7402 2.4934 -41.5058 -14.1703 -24.2630 -7.2740 5.2537 44.7854 13.4178 -3.4971 -0.9996 -0.0000 0.0000 -0.0000 34.9518 5.2194 3.5742 38.1873 2.5595 -19.4226 9.8837 -2.9076 24.3792 -11.4558 0.6011 -0.5852 0.0000 0.0000 0.0000 7.3786 0.9923 -2.9637 7.2146 2.2330 65.3195 5.5265 -0.9442 7.0661 0.0000 0.0000 -0.0000
23.6493 38.4245 -2.5090 -175.8990 31.6195 172.1160 0.0000 0.0000 0.0000 6.0231 -1.1327 -7.4097 -2.2440 -8.3409 21.6798 0.1678 -0.0304 -6.0066 0.0000 -0.0000 -0.0000 0.0000 0.0000 0.0000 6.4800 1.4051 11.8994 0.7498 1.5757 -2.1205 -0.0000 0.0000 -0.0000 -0.7941 5.5446 3.8936 -0.0000 0.0000 -0.0000 -33.8292 -2.6675 2.4597 -41.1401 -12.7446 -24.5059 -7.2847 5.2456 45.0704 14.1493 -3.3706 -1.0418 -0.0000 0.0000 -0.0000 34.8840 5.2200 3.5685 38.2110 3.9260 -17.5565 10.4229 0.7347 23.0603 -12.1681 0.8796 -0.6490 0.0000 0.0000 0.0000 5.7379 1.2867 -7.4658 8.2458 2.5106 65.8320 6.6345 -0.7914 2.0495 0.0000 0.0000 -0.0000
24.7013 38.4961 -3.5721 -176.4980 33.1743 171.6340 0.0000 0.0000 0.0000 6.1299 -1.4648 -5.0786 -1.5547 -6.6423 22.4489 -0.2844 -0.0248 -8.5460 0.0000 -0.0000 -0.0000 0.0000 0.0000 0.0000 6.9011 2.3511 12.1432 -0.5943 2.8371 -2.0653 -0.0000 0.0000 -0.0000 -0.3953 5.2637 4.0123 -0.0000 0.0000 -0.0000 -33.8425 -2.5567 2.4164 -41.0229 -10.5211 -24.2854 -7.8661 5.3082 42.4280 14.6352 -3.3019 -1.0707 -0.0000 0.0000 -0.0000 34.7184 5.2055 3.5479 37.8576 5.7417 -15.2050 11.0032 4.2108 20.7372 -12.6318 0.7833 -0.6654 0.0000 0.0000 0.0000 4.1764 1.8981 -11.3359 10.0500 3.5445 63.7917 7.9996 -0.6762 -1.5726 0.0000 0.0000 -0.0000
25.7486 38.5751 -4.6421 -176.9770 34.4540 171.1980 0.0000 0.0000 0.0000 6.1910 -1.7907 -2.4255 -1.0105 -5.3665 22.6086 -0.6665 -0.0349 -10.6141 0.0000 -0.0000 -0.0000 0.0000 0.0000 0.0000 7.0104 3.1126 12.0993 -1.3649 3.8127 -1.6427 -0.0000 0.0000 -0.0000 -0.3180 5.4094 3.7542 -0.0000 0.0000 -0.0000 -33.9954 -2.4912 2.3996 -40.9470 -8.3103 -23.9395 -8.5431 5.3805 39.1392 14.4712 -3.3365 -1.0623 -0.0000 0.0000 -0.0000 34.5220 5.1701 3.5162 37.1799 7.9920 -11.7734 11.2217 7.2693 18.2820 -12.3984 1.4507 -0.7169 0.0000 0.0000 0.0000 2.8313 2.1484 -14.4338 12.4893 5.6503 59.3718 8.4370 -0.4553 -4.8211 0.0000 0.0000 -0.0000
26.7823 38.6574 -5.7256 -177.1360 35.3746 171.1150 0.0000 0.0000 0.0000 6.4356 -1.9339 0.4220 -0.7150 -4.5940 21.9857 -0.6512 -0.0525 -12.5680 0.0000 -0.0000 -0.0000 0.0000 0.0000 0.0000 7.1495 3.6355 11.4445 -1.8314 4.4775 -0.8560 -0.0000 0.0000 -0.0000 -0.2882 5.7118 3.4357 -0.0000 0.0000 -0.0000 -34.0708 -2.4736 2.3971 -40.9506 -6.5516 -23.6718 -8.9842 5.4163 37.3117 14.1734 -3.5130 -1.0600 -0.0000 0.0000 -0.0000 34.3752 5.1362 3.4896 36.3464 10.2915 -8.0713 10.7922 9.4954 17.4675 -10.6075 3.3449 -0.7690 0.0000 0.0000 0.0000 1.9159 2.0400 -16.8788 14.6511 8.8868 52.9649 7.8949 -0.2627 -6.9246 0.0000 0.0000 -0.0000
27.7930 38.7142 -6.8110 -177.0190 35.7593 171.5230 0.0000 0.0000 0.0000 6.8423 -1.9742 3.1816 -0.5895 -4.3317 20.7374 -0.1651 -0.0571 -14.2670 0.0000 -0.0000 -0.0000 0.0000 0.0000 0.0000 7.2066 3.8798 10.2545 -1.9869 4.7565 -0.1069 -0.0000 0.0000 -0.0000 -0.1456 6.1156 3.4612 -0.0000 0.0000 -0.0000 -33.9196 -2.4781 2.3898 -41.1331 -5.2796 -23.6535 -9.0929 5.4130 37.4020 14.0825 -3.8379 -1.0900 -0.0000 0.0000 -0.0000 34.2928 5.1180 3.4751 35.5827 12.2274 -5.3155 10.0868 11.1474 17.5756 -8.2900 4.7695 -0.6890 0.0000 0.0000 0.0000 1.2548 1.9046 -18.6352 15.4503 12.8959 44.7113 7.4017 -0.1650 -8.0372 0.0000 0.0000 -0.0000
28.7744 38.7930 -7.8884 -176.8320 35.6491 172.2170 0.0000 0.0000 0.0000 7.2135 -2.1170 6.0247 -0.4275 -4.4676 18.6206 -0.0681 -0.0582 -15.0588 0.0000 -0.0000 -0.0000 0.0000 0.0000 0.0000 7.0329 3.9905 8.8162 -1.8204 4.7817 0.4632 -0.0000 0.0000 -0.0000 0.0455 6.6941 3.7795 -0.0000 0.0000 -0.0000 -33.7089 -2.4983 2.3851 -41.3121 -4.5984 -24.0807 -8.8353 5.3875 38.6851 13.9034 -4.0323 -1.0976 -0.0000 0.0000 -0.0000 34.2276 5.1049 3.4641 35.2425 13.6000 -1.6764 9.0013 13.3261 13.9867 -7.6795 4.4643 -0.6129 0.0000 0.0000 0.0000 0.3940 2.4354 -19.2583 13.4506 16.2339 33.9287 6.6850 -0.0386 -9.7072 0.0000 0.0000 -0.0000
29.6860 38.9670 -8.9338 -176.7280 35.7231 172.9160 0.0000 0.0000 0.0000 7.3606 -2.4870 9.3263 -0.0124 -4.3701 15.1103 -1.1474 -0.0863 -14.6601 0.0000 -0.0000 -0.0000 0.0000 0.0000 0.0000 6.9364 4.2688 7.4668 -1.7064 4.9579 0.9370 -0.0000 0.0000 -0.0000 0.2108 7.4161 4.0728 -0.0000 0.0000 -0.0000 -33.7093 -2.5185 2.3931 -41.1702 -4.4307 -24.9185 -8.2987 5.3586 40.1886 13.4579 -3.8447 -1.0407 -0.0000 0.0000 -0.0000 34.1929 5.0975 3.4581 35.3517 14.4267 3.1899 7.4044 16.0080 6.3850 -9.4069 3.1264 -0.6643 0.0000 0.0000 0.0000 -0.6145 3.6279 -18.4828 8.5711 17.6662 20.4787 5.1932 0.0832 -11.6297 0.0000 0.0000 -0.0000
30.5420 39.1059 -9.9703 -176.6800 36.3649 173.6230 0.0000 0.0000 0.0000 7.2445 -3.1896 12.3945 0.4840 -3.4380 11.7951 -2.3600 -0.1115 -14.1707 0.0000 -0.0000 -0.0000 0.0000 0.0000 0.0000 7.0950 4.7310 6.2072 -1.8922 5.3566 1.2906 -0.0000 0.0000 -0.0000 0.4072 8.2101 4.2245 -0.0000 0.0000 -0.0000 -33.8809 -2.4963 2.3947 -40.7397 -4.2475 -25.8055 -7.7552 5.3366 41.3314 13.2382 -3.4849 -0.9843 -0.0000 0.0000 -0.0000 34.2889 5.1136 3.4729 35.5591 14.8116 6.6997 6.0951 17.7909 0.5873 -11.5158 2.5454 -0.7676 0.0000 0.0000 0.0000 -0.5881 2.6336 -16.9794 3.4980 20.1260 7.3358 3.1040 0.1101 -12.5913 0.0000 0.0000 -0.0000
31.4403 39.0185 -11.0802 -176.5550 36.9728 174.4560 0.0000 0.0000 0.0000 7.0400 -4.2996 14.2481 0.6976 -1.9535 11.1591 -2.2635 -0.1209 -14.7483 0.0000 -0.0000 -0.0000 0.0000 0.0000 0.0000 7.1957 5.0236 4.8094 -2.1158 5.5715 1.4619 -0.0000 0.0000 -0.0000 0.6483 9.0975 4.2237 -0.0000 0.0000 -0.0000 -33.8991 -2.4094 2.3612 -40.4066 -3.7120 -26.3975 -7.4188 5.3187 42.1893 13.6817 -3.3869 -1.0081 -0.0000 0.0000 -0.0000 34.4958 5.1433 3.5030 35.7651 14.7508 7.9638 5.6933 18.2734 -0.7015 -11.9194 2.6987 -0.8091 0.0000 0.0000 0.0000 -0.0186 -0.2948 -16.1997 0.9396 24.2357 -0.9407 0.5930 0.0878 -13.2047 0.0000 0.0000 -0.0000
